<svg width="572" height="515" version="1.1" xmlns="http://www.w3.org/2000/svg" desc="Created with imagetracer.js version 1.2.6" ><path fill="rgb(2,57,176)" stroke="rgb(2,57,176)" stroke-width="1" opacity="0.14901960784313725" d="M 401.5 87 L 424.5 87 L 435 90 L 435 92 L 439 92 L 441 96 L 444 96 Q 442.9 98.7 445.5 98 L 448 99 L 448 101 Q 450.7 99.9 450 102.5 L 453 107 L 455 107 L 455 110 Q 457.7 108.9 457 111.5 L 462 120.5 L 462 126 L 464 126.5 L 464 151 Q 460.3 149.7 462 155.5 L 457 163.5 L 457 166 L 455 166 L 455 168 Q 452.3 166.9 453 169.5 Q 447.6 172.3 449.5 175 L 448 174.5 Q 448.7 177.1 446 176 L 446 178 L 443 178 Q 444.3 181 440.5 180 L 440.5 182 L 429 185 L 428.5 187 L 421.5 187 L 421.5 189 L 414 189.5 L 416 190.5 Q 410.6 189.6 409 192.5 L 408.5 196 L 407.5 194 L 406.5 200 L 405.5 198 L 405 206 Q 408 204.8 407 208.5 L 411 212.5 Q 410.8 217.7 414 219.5 L 414.5 225 L 416 224.5 L 416 229.5 Q 420.1 231.8 419 238 L 421 238 Q 419.3 243.2 423 242 L 423 246.5 Q 426 245.5 425 250.5 L 428 255.5 L 428 259 Q 431.7 257.6 430 263.5 L 432 263.5 L 432 267.5 L 437 276.5 L 437 280 L 439 280 Q 437.8 285.3 441 284.5 L 441 287.5 L 446 297.5 L 446 301 L 448 301 L 448 305.5 Q 451 304.5 450 309.5 Q 453.8 312.3 453 318 L 455 318 L 455 322 L 457 322 Q 455.8 327.3 459 326.5 L 459 329.5 L 462 334.5 L 462.5 339 L 464 338.5 L 464 343 L 466 343 L 466 347.5 L 468 348 L 468 350.5 L 469 355 L 471 355 Q 469.3 360.2 473 359 L 473 363.5 L 475 363.5 L 475 367.5 L 478 376 Q 481.7 374.6 480 380.5 L 482 380.5 L 482 384.5 Q 485 383.5 484 388.5 L 487 396 Q 490.7 394.6 489 400.5 L 491 400.5 L 492 406.5 L 489.5 409 L 443.5 409 L 439 403.5 L 439 399 L 437 399 L 437 394 L 435 394 L 435 389.5 Q 432 390.5 433 385.5 L 430 380.5 L 430 377 Q 426.3 378.4 428 372.5 L 426 372.5 Q 427.3 367.3 424.5 366 L 356.5 366 Q 357.5 369.3 351.5 368 L 348.5 366 L 338 366 Q 339.1 362.7 335 364 L 334 368 L 332 368 Q 333.5 374.3 330 373.5 L 330 377.5 L 328 377.5 L 328 381.5 Q 325 380.5 326 385.5 L 322.5 395 L 321 394.5 L 320.5 399 L 319 398.5 L 316 405 Q 313 404 314 407 L 311.5 407 L 311.5 409 Q 306.2 408.2 304.5 411 L 291.5 411 L 284 409 Q 285.3 406 281.5 407 L 281.5 405 Q 278.9 405.7 280 403 L 278 403 L 278 401 L 276 401 Q 277.3 395.7 274 396.5 L 274 392.5 L 271 386.5 L 271 382 L 269 382 Q 270.7 376.8 267 378 L 267 373.5 Q 264 374.5 265 369.5 L 262 364.5 L 262 360 Q 258.3 361.4 260 355.5 L 258 355.5 L 258 351.5 Q 254.5 349.3 255 344 L 253 344 L 253 340 L 251 340 Q 252.7 334.8 249 336 L 249 331.5 L 247 329.5 L 243.5 319 L 242 319.5 L 241.5 315 L 240 315.5 L 237 304 Q 233.3 305.4 235 299.5 L 233 299.5 L 233 295.5 L 231 295 L 231 292.5 L 230 289 L 226 287 Q 227.7 281.8 224 283 L 222.5 293 L 221 292.5 L 220.5 299 L 219 298.5 L 219 302.5 Q 215.8 301.5 217 307.5 L 214 313.5 L 214 319 L 212 319 L 212 324 L 210 324 L 210 328 L 208.5 328 L 208.5 330 L 200.5 333 L 201.5 331 L 207 327.5 L 220 292.5 L 222 281.5 L 224.5 278 L 229.5 285 L 231.5 284 L 230 286.5 L 231 287.5 Q 230.2 290.1 233.5 289 L 238.5 286 L 237.5 288 Q 233.5 287.5 233 290.5 L 245 319.5 L 250.5 327 L 263.5 333 L 269.5 334 L 274.5 332 L 274.5 333 Q 272.2 335.7 266.5 335 L 256.5 331 L 252 331 Q 250.8 334 254.5 333 L 264.5 339 L 267 339 L 269 345 L 276.5 347 L 281 343.5 Q 282.3 335.2 277.5 333 L 276 332.5 L 277.5 332 Q 283.8 333.8 282 343.5 Q 279.9 347.9 273.5 348 L 268 344.5 L 265.5 340 L 252 334 L 268 370.5 L 277 396.5 L 284.5 406 L 293.5 409 L 303.5 409 Q 311.3 406.8 316 401.5 L 326 379.5 L 353 306.5 L 368.5 272 L 369 273.5 L 365 282.5 L 365 287.5 L 360 294.5 L 359 300.5 L 355 305.5 Q 352.3 322.3 345 334.5 L 345 340.5 L 346 343.5 Q 342.8 344.7 344 350.5 Q 345.2 353 349 352 L 346 362.5 L 348.5 364 L 356 352.5 L 361 337.5 L 366.5 327 L 368.5 328 L 407.5 328 L 410 327.5 L 402 311.5 L 401 305.5 L 399 303.5 L 397 295.5 L 389 277.5 L 387 268.5 L 407 223.5 L 407 216 L 400.5 214 Q 393.1 221.1 390 232.5 L 385 238.5 L 382 244.5 L 382 247.5 L 371.5 267 L 371 265.5 L 404 194.5 L 409.5 189 L 416.5 186 L 421.5 186 L 436.5 181 L 452 167.5 Q 462.6 156.1 462 133.5 L 460 123.5 L 455 112.5 L 441.5 98 Q 429.2 87.3 403.5 90 Q 385.4 94.4 376 107.5 Q 363.9 119.4 365 144.5 Q 367.1 157.4 374 165.5 L 376 175.5 L 372 187.5 L 360 210.5 L 312 315.5 L 317.5 311 L 324 305.5 Q 322.9 297.9 327.5 296 L 332.5 295 L 337 297 Q 339.7 299.6 339 306.5 L 338 309 L 330.5 312 L 326.5 311 L 307 328.5 L 298.5 344 L 296 342.5 L 258.5 261 L 257 261.5 Q 258.7 255.7 255 257 L 254 265.5 L 250 274 Q 247.3 272.9 248 275.5 L 243 279.5 Q 243.8 281.8 241.5 281 L 237.5 283 L 237.5 282 Q 245.7 278.7 250 271.5 L 255 255.5 L 255 240.5 L 252 224.5 L 243.5 213 Q 237.5 207 223.5 209 Q 211.6 213.1 205 222.5 Q 197.8 233.1 199 251 Q 195 249.6 197 256.5 L 198 257.5 Q 196.5 269 199 276.5 L 197 275.5 L 197 259.5 L 195.5 256 L 190 273.5 L 156 358.5 L 142 398.5 L 142 401.5 L 151.5 408 L 164.5 409 Q 175.2 406.7 180 398.5 L 202 339 Q 192.3 342.5 185 349.5 L 184.5 355 L 184 348 L 189 345.5 Q 187.8 341.8 191.5 343 L 205 334.5 L 204.5 333 Q 206.8 332.3 206 334.5 L 202 338.5 L 203.5 340 L 205 339.5 L 204.5 343 L 203 342.5 L 203 347.5 L 199 353.5 L 198 361 Q 194 359.6 196 366.5 L 194 366.5 L 194 370.5 Q 191 369.5 192 374.5 Q 188.1 377.5 189 384 Q 185 382.6 187 389.5 L 185 389.5 L 185 394.5 L 183 395 L 183 397.5 L 182 400 L 180 400 L 180 403 L 178 403 L 176 407 Q 171.9 405.7 173 409 L 169.5 409 L 167.5 411 Q 162 409.5 160.5 412 L 145 408.5 L 145.5 407 L 144 407 L 144 405 Q 141.3 406.1 142 403.5 L 140 403.5 L 140 401 L 138 401 Q 139.5 397.2 136.5 398 Q 134 396.8 135 393 L 133 393 Q 134.5 386.7 131 387.5 L 131 383.5 L 128 377.5 L 128 374 L 126 374 Q 127.5 367.7 124 368.5 L 124 364.5 L 122 364.5 L 122 360.5 L 119 354.5 L 119 351 L 117 351 L 117 346 L 115 346 L 115 341.5 Q 112 342.5 113 337.5 L 110 331.5 L 110 328 L 108 328 Q 109.5 321.7 106 322.5 L 106 318.5 L 101 308.5 L 101 305 L 99 305 Q 100.5 298.7 97 299.5 L 97 295.5 L 94 290.5 L 94 287 Q 90 288.4 92 281.5 L 90 281.5 L 89.5 276 L 88 276.5 L 88 272.5 L 85 267.5 L 85 264 Q 81.3 265.4 83 259.5 L 81 259.5 L 81 254.5 L 76 244.5 L 75.5 240 L 74 240.5 L 73.5 235 L 72 235.5 L 72 230.5 Q 68 226.3 68 219 L 118.5 219 L 119 220.5 L 121 222.5 L 121 226.5 L 123 228.5 L 126.5 242 L 128 241.5 L 128 246.5 Q 131.3 245.5 130 251.5 Q 133.7 254.9 133 261 Q 137 259.6 135 266.5 L 137 266.5 L 137 271.5 Q 140.3 270.5 139 276.5 L 142 281.5 L 142 286 Q 146 284.6 144 291.5 L 146 291.5 L 146 295.5 L 148 297.5 L 151.5 311 L 153 310.5 L 153 315.5 Q 156.3 314.5 155 320.5 Q 158.7 323.9 158 330 L 160 330.5 L 160 337.5 L 162 338.5 L 165.5 327 L 167 327.5 L 167 323.5 Q 170 324.5 169 319.5 L 171 317.5 L 174.5 303 L 176 303.5 L 176 299.5 Q 179 300.5 178 295.5 Q 181.9 292.5 181 286 Q 184.7 287.4 183 281.5 L 185 281.5 L 185 276.5 Q 188 277.5 187 272.5 Q 190.6 268.6 190.5 261 L 192 261.5 L 192 255.5 Q 195.3 256.3 194 251 L 196 251 L 196 244.5 Q 198.5 243 197 237.5 L 199 233.5 L 199 228 L 201 228 L 201 224 L 203 224 Q 201.5 220.2 204.5 221 L 204.5 219 L 209.5 215 L 211 212 Q 214 213 213 210 L 217 210 L 217 208 L 220.5 208 L 221.5 207 L 236.5 207 L 241 208 L 241 210 L 244 210 L 244 212 L 246 212 Q 244.9 214.7 247.5 214 L 251 218.5 L 251 221 Q 254.3 219.7 253 224.5 L 255 224.5 Q 253.2 231.8 257 233.5 L 258 257.5 L 260.5 262 L 262 261.5 L 262.5 267 L 264 266.5 L 264 270.5 L 269 279.5 L 269 282 L 271 282 Q 269.3 287.2 273 286 L 273 290.5 Q 276.9 292.6 276 298 L 278 298 Q 276.7 302.1 280 301 L 280 304.5 L 282 306.5 L 285 316 Q 288.7 314.6 287 320.5 L 289 320.5 L 289 324.5 L 291 325 L 291 327.5 L 292 331 L 294 331 Q 292.8 336.3 296 335.5 L 296 338.5 L 298 338.5 L 298.5 341 L 299 337 Q 302.7 338.4 301 332.5 L 303 332.5 L 306.5 323 L 309.5 324 L 317 318.5 L 319.5 315 L 328.5 309 L 330.5 311 L 335.5 308 Q 338.5 308.9 337 304.5 L 338 302.5 L 333.5 297 Q 327.5 295.5 326 298.5 L 325 305.5 L 317.5 313 L 311.5 318 L 310 311 Q 313 312.3 312 308.5 L 317 299.5 L 317 296 L 319 296 L 319 292 Q 322 293.3 321 289.5 L 324.5 281 L 326 281.5 L 326.5 277 L 328 277.5 L 328 274.5 L 333 265.5 L 333 262 L 335 262 Q 333.8 256.7 337 257.5 L 337 254.5 L 342 246.5 L 342.5 242 L 344 242.5 L 344 239.5 Q 347 240.5 346 235.5 Q 349.9 233.4 349 228 Q 352.7 229.3 351 223.5 L 353 223.5 L 353 219.5 L 355 219 L 355 216.5 Q 358.7 213.7 358 208 L 360 208 L 360 204 Q 363 205.3 362 201.5 L 367 192.5 L 367 189 L 369 189 Q 367.7 183.7 371 184.5 L 371 181.5 L 373 179.5 L 373 169.5 L 371 164 Q 367.7 165.3 369 160.5 L 367 160.5 L 367 157.5 L 364 151.5 L 364 145.5 L 362 142.5 L 362 134.5 L 364 131.5 L 364 125.5 L 367 119.5 L 367.5 115 L 369 115.5 L 369 112 Q 371.7 113.1 371 110.5 L 374 105 L 376 105 L 376 103 L 378 103 Q 376.9 100.3 379.5 101 L 379.5 99 L 382.5 97 L 385 96 Q 383.7 92.7 388.5 94 L 388.5 92 L 392 91.5 L 391.5 90 L 395.5 90 L 401.5 87 Z M 404 202 L 402 210 L 404 209 L 404 202 Z M 412 218 L 410 220 L 412 220 L 412 218 Z M 71 221 L 75 236 L 137 393 Q 136 395 139 394 L 150 360 L 158 341 L 158 334 L 155 325 L 125 245 L 118 223 L 117 221 L 71 221 Z M 409 222 L 389 269 L 391 278 L 412 328 L 411 329 L 368 329 L 353 362 L 354 364 L 426 364 L 429 370 L 443 405 L 444 406 L 489 406 L 411 224 Q 412 221 409 222 Z " /><path fill="rgb(2,57,176)" stroke="rgb(2,57,176)" stroke-width="1" opacity="0.14901960784313725" d="M 408.5 112 Q 428.5 110.5 435 122.5 Q 440.8 129.2 439 143.5 Q 435.9 154.4 427.5 160 L 420.5 163 L 411.5 164 L 401.5 161 L 392 152.5 Q 386.3 146.2 388 132.5 Q 390.4 122.4 397.5 117 L 408.5 112 Z M 413 115 L 405 117 L 399 121 Q 393 126 391 134 L 391 143 L 397 153 Q 399 152 398 155 L 409 160 L 420 160 L 428 156 Q 434 151 436 143 L 436 133 L 431 123 L 424 117 L 413 115 Z " /><path fill="rgb(2,57,176)" stroke="rgb(2,57,176)" stroke-width="1" opacity="0.14901960784313725" d="M 228.5 217 Q 238.6 215.4 241 221.5 L 242 224.5 L 241 224.5 L 237.5 219 L 228.5 218 L 227 218.5 L 228.5 217 Z " /><path fill="rgb(2,57,176)" stroke="rgb(2,57,176)" stroke-width="1" opacity="0.14901960784313725" d="M 226 220 Q 229.7 218.8 228 224 L 230.5 224 L 240 229.5 L 237.5 228 L 226 223.5 L 226 220 Z " /><path fill="rgb(2,57,176)" stroke="rgb(2,57,176)" stroke-width="1" opacity="0.14901960784313725" d="M 242.5 226 L 243 231 Q 240.3 232.1 241 229.5 L 242.5 226 Z " /><path fill="rgb(2,57,176)" stroke="rgb(2,57,176)" stroke-width="1" opacity="0.14901960784313725" d="M 199.5 253 L 202 267.5 L 202 285.5 L 201 286.5 L 200 301.5 L 189.5 324 L 189 322.5 L 191 315.5 L 197 305.5 L 200 294.5 L 200 292.5 L 201 283.5 L 200 280.5 L 199.5 253 Z " /><path fill="rgb(2,57,176)" stroke="rgb(2,57,176)" stroke-width="1" opacity="0.14901960784313725" d="M 256.5 263 L 257 265.5 Q 253.6 277.1 244.5 283 L 240.5 286 L 244.5 281 L 248 278.5 Q 254.4 272.9 256.5 263 Z " /><path fill="rgb(2,57,176)" stroke="rgb(2,57,176)" stroke-width="1" opacity="0.14901960784313725" d="M 198.5 280 L 199 286.5 L 198 287.5 L 197 300.5 L 192.5 309 L 192 307.5 L 197 295.5 L 197 286.5 L 198.5 280 Z " /><path fill="rgb(2,57,176)" stroke="rgb(2,57,176)" stroke-width="1" opacity="0.14901960784313725" d="M 368.5 302 L 371.5 306 L 373 306.5 L 371.5 307 L 368 303.5 L 368.5 302 Z " /><path fill="rgb(2,57,176)" stroke="rgb(2,57,176)" stroke-width="1" opacity="0.14901960784313725" d="M 388.5 308 L 390.5 311 Q 386.1 312.1 388.5 308 Z " /><path fill="rgb(2,57,176)" stroke="rgb(2,57,176)" stroke-width="1" opacity="0.14901960784313725" d="M 308.5 316 Q 311.5 317.5 308.5 319 L 308.5 316 Z " /><path fill="rgb(2,57,176)" stroke="rgb(2,57,176)" stroke-width="1" opacity="0.14901960784313725" d="M 188.5 317 L 189 320.5 L 184 331.5 L 186 330.5 L 188.5 325 L 189 326.5 L 184.5 333 Q 181.5 333.9 183 329.5 L 188.5 317 Z " /><path fill="rgb(2,57,176)" stroke="rgb(2,57,176)" stroke-width="1" opacity="0.14901960784313725" d="M 198.5 333 L 197.5 335 L 195.5 336 L 196.5 334 L 198.5 333 Z " /><path fill="rgb(2,57,176)" stroke="rgb(2,57,176)" stroke-width="1" opacity="0.14901960784313725" d="M 272.5 336 Q 275.5 337.5 272.5 339 L 272.5 336 Z " /><path fill="rgb(2,57,176)" stroke="rgb(2,57,176)" stroke-width="1" opacity="0.14901960784313725" d="M 190.5 338 L 186.5 343 Q 183.9 342.3 185 345 L 181.5 345 L 177.5 343 L 172 346.5 L 170.5 350 L 170 347.5 L 172.5 344 L 177.5 342 L 183.5 344 L 190.5 338 Z " /><path fill="rgb(2,57,176)" stroke="rgb(2,57,176)" stroke-width="1" opacity="0.14901960784313725" d="M 194.5 338 L 196 338.5 L 193.5 340 L 194.5 338 Z " /><path fill="rgb(2,57,176)" stroke="rgb(2,57,176)" stroke-width="1" opacity="0.14901960784313725" d="M 278.5 341 L 278 342.5 Q 278.8 344.8 276.5 344 L 274.5 344 L 273 343.5 Q 277.3 343.8 278.5 341 Z " /><path fill="rgb(2,57,176)" stroke="rgb(2,57,176)" stroke-width="1" opacity="0.14901960784313725" d="M 176.5 345 L 181 346.5 L 177.5 347 L 176.5 345 Z " /><path fill="rgb(2,57,176)" stroke="rgb(2,57,176)" stroke-width="1" opacity="0.14901960784313725" d="M 181.5 349 L 182 351.5 L 179.5 353 L 181 350.5 L 181.5 349 Z " /><path fill="rgb(2,57,176)" stroke="rgb(2,57,176)" stroke-width="1" opacity="0.14901960784313725" d="M 170.5 352 L 172 356 L 177 358.5 L 175.5 358 L 171 355.5 L 170.5 352 Z " /><path fill="rgb(0,0,0)" stroke="rgb(0,0,0)" stroke-width="1" opacity="0" d="M 0 0 L 572 0 L 572 515 L 0 515 L 0 0 Z M 402 87 L 396 90 L 392 90 L 392 92 L 389 92 L 389 94 Q 384 93 385 96 L 383 97 L 380 99 L 380 101 Q 377 100 378 103 L 376 103 L 376 105 L 374 105 L 371 111 Q 372 113 369 112 L 369 116 L 368 115 L 367 120 L 364 126 L 364 132 L 362 135 L 362 143 L 364 146 L 364 152 L 367 158 L 367 161 L 369 161 Q 368 165 371 164 L 373 170 L 373 180 L 371 182 L 371 185 Q 368 184 369 189 L 367 189 L 367 193 L 362 202 Q 363 205 360 204 L 360 208 L 358 208 Q 359 214 355 217 L 355 219 L 353 220 L 353 224 L 351 224 Q 353 229 349 228 Q 350 233 346 236 Q 347 241 344 240 L 344 243 L 343 242 L 342 247 L 337 255 L 337 258 Q 334 257 335 262 L 333 262 L 333 266 L 328 275 L 328 278 L 327 277 L 326 282 L 325 281 L 321 290 Q 322 293 319 292 L 319 296 L 317 296 L 317 300 L 312 309 Q 313 312 310 311 L 312 318 L 318 313 L 325 306 L 326 299 Q 327 296 334 297 L 338 303 L 337 305 Q 338 309 336 308 L 331 311 L 329 309 L 320 315 L 317 319 L 310 324 L 307 323 L 303 333 L 301 333 Q 303 338 299 337 L 299 341 L 298 339 L 296 339 L 296 336 Q 293 336 294 331 L 292 331 L 291 328 L 291 325 L 289 325 L 289 321 L 287 321 Q 289 315 285 316 L 282 307 L 280 305 L 280 301 Q 277 302 278 298 L 276 298 Q 277 293 273 291 L 273 286 Q 269 287 271 282 L 269 282 L 269 280 L 264 271 L 264 267 L 263 267 L 262 262 L 261 262 L 258 258 L 257 234 Q 253 232 255 225 L 253 225 Q 254 220 251 221 L 251 219 L 248 214 Q 245 215 246 212 L 244 212 L 244 210 L 241 210 L 241 208 L 237 207 L 222 207 L 221 208 L 217 208 L 217 210 L 213 210 Q 214 213 211 212 L 210 215 L 205 219 L 205 221 Q 202 220 203 224 L 201 224 L 201 228 L 199 228 L 199 234 L 197 238 Q 199 243 196 245 L 196 251 L 194 251 Q 195 256 192 256 L 192 262 L 191 261 Q 191 269 187 273 Q 188 278 185 277 L 185 282 L 183 282 Q 185 287 181 286 Q 182 293 178 296 Q 179 301 176 300 L 176 304 L 175 303 L 171 318 L 169 320 Q 170 325 167 324 L 167 328 L 166 327 L 162 339 L 160 338 L 160 331 L 158 330 Q 159 324 155 321 Q 156 315 153 316 L 153 311 L 152 311 L 148 298 L 146 296 L 146 292 L 144 292 Q 146 285 142 286 L 142 282 L 139 277 Q 140 271 137 272 L 137 267 L 135 267 Q 137 260 133 261 Q 134 255 130 252 Q 131 246 128 247 L 128 242 L 127 242 L 123 229 L 121 227 L 121 223 L 119 221 L 119 219 L 68 219 Q 68 226 72 231 L 72 236 L 74 235 L 74 241 L 76 240 L 76 245 L 81 255 L 81 260 L 83 260 Q 81 265 85 264 L 85 268 L 88 273 L 88 277 L 90 276 L 90 282 L 92 282 Q 90 288 94 287 L 94 291 L 97 296 L 97 300 Q 101 299 99 305 L 101 305 L 101 309 L 106 319 L 106 323 Q 110 322 108 328 L 110 328 L 110 332 L 113 338 Q 112 343 115 342 L 115 346 L 117 346 L 117 351 L 119 351 L 119 355 L 122 361 L 122 365 L 124 365 L 124 369 Q 127 368 126 374 L 128 374 L 128 378 L 131 384 L 131 388 Q 135 387 133 393 L 135 393 Q 134 397 137 398 Q 140 397 138 401 L 140 401 L 140 404 L 142 404 Q 141 406 144 405 L 144 407 L 146 407 L 145 409 L 161 412 Q 162 410 168 411 L 170 409 L 173 409 Q 172 406 176 407 L 178 403 L 180 403 L 180 400 L 182 400 L 183 398 L 183 395 L 185 395 L 185 390 L 187 390 Q 185 383 189 384 Q 188 377 192 375 Q 191 370 194 371 L 194 367 L 196 367 Q 194 360 198 361 L 199 354 L 203 348 L 203 343 L 205 343 L 205 340 L 204 340 L 203 337 L 192 343 Q 188 342 189 346 L 184 348 L 184 356 L 182 358 Q 175 359 172 356 L 170 352 L 172 347 L 178 343 L 182 345 Q 186 346 185 343 L 200 333 L 209 330 L 209 328 L 210 328 L 210 324 L 212 324 L 212 319 L 214 319 L 214 314 L 217 308 Q 216 302 219 303 L 219 299 L 221 299 L 221 293 L 223 293 L 224 283 Q 228 282 226 287 L 230 289 L 231 293 L 231 295 L 233 296 L 233 300 L 235 300 Q 233 305 237 304 L 240 316 L 242 315 L 242 320 L 244 319 L 247 330 L 249 332 L 249 336 Q 253 335 251 340 L 253 340 L 253 344 L 255 344 Q 255 349 258 352 L 258 356 L 260 356 Q 258 361 262 360 L 262 365 L 265 370 Q 264 375 267 374 L 267 378 Q 271 377 269 382 L 271 382 L 271 387 L 274 393 L 274 397 Q 277 396 276 401 L 278 401 L 278 403 L 280 403 Q 279 406 282 405 L 282 407 Q 285 406 284 409 L 292 411 L 305 411 Q 306 408 312 409 L 312 407 L 314 407 Q 313 404 316 405 L 319 399 L 321 399 L 321 395 L 323 395 L 326 386 Q 325 381 328 382 L 328 378 L 330 378 L 330 374 Q 334 374 332 368 L 334 368 L 335 364 Q 339 363 338 366 L 349 366 L 352 368 Q 357 369 357 366 L 425 366 Q 427 367 426 373 L 428 373 Q 426 378 430 377 L 430 381 L 433 386 Q 432 391 435 390 L 435 394 L 437 394 L 437 399 L 439 399 L 439 404 L 444 409 L 490 409 L 492 407 L 491 401 L 489 401 Q 491 395 487 396 L 484 389 Q 485 384 482 385 L 482 381 L 480 381 Q 482 375 478 376 L 475 368 L 475 364 L 473 364 L 473 359 Q 469 360 471 355 L 469 355 L 468 351 L 468 348 L 466 348 L 466 343 L 464 343 L 464 339 L 463 339 L 462 335 L 459 330 L 459 327 Q 456 327 457 322 L 455 322 L 455 318 L 453 318 Q 454 312 450 310 Q 451 305 448 306 L 448 301 L 446 301 L 446 298 L 441 288 L 441 285 Q 438 285 439 280 L 437 280 L 437 277 L 432 268 L 432 264 L 430 264 Q 432 258 428 259 L 428 256 L 425 251 Q 426 246 423 247 L 423 242 Q 419 243 421 238 L 419 238 Q 420 232 416 230 L 416 225 L 415 225 Q 415 220 413 218 L 412 220 L 410 221 L 412 218 Q 412 211 407 209 Q 408 205 405 206 L 406 198 L 407 200 L 408 194 L 409 196 L 409 193 Q 411 190 416 191 L 414 190 L 422 189 L 422 187 L 429 187 L 429 185 L 441 182 L 441 180 L 443 180 L 443 178 L 446 178 Q 445 175 448 176 L 453 170 Q 452 167 455 168 L 455 166 L 457 166 L 457 164 L 462 156 Q 460 150 464 151 L 464 127 L 462 126 L 462 121 L 457 112 Q 458 109 455 110 L 455 107 L 453 107 L 450 103 Q 451 100 448 101 L 448 99 L 446 98 Q 443 99 444 96 L 441 96 L 439 92 L 435 92 L 435 90 L 425 87 L 402 87 Z M 309 316 L 309 319 Q 312 318 309 316 Z M 205 333 L 206 335 Q 207 332 205 333 Z M 177 345 L 178 347 L 181 347 L 177 345 Z M 182 349 L 181 351 L 180 353 L 182 352 L 182 349 Z " /><path fill="rgb(0,0,0)" stroke="rgb(0,0,0)" stroke-width="1" opacity="0" d="M 412.5 115 L 423.5 117 L 431 122.5 L 436 132.5 L 436 142.5 Q 433.9 151.4 427.5 156 L 419.5 160 L 408.5 160 L 398 155 Q 399.1 152.3 396.5 153 L 391 142.5 L 391 133.5 Q 393.3 125.8 398.5 121 L 404.5 117 L 412.5 115 Z " /><path fill="rgb(0,0,0)" stroke="rgb(0,0,0)" stroke-width="1" opacity="0" d="M 403.5 202 L 404 208.5 L 402 209.5 L 403.5 202 Z " /><path fill="rgb(0,0,0)" stroke="rgb(0,0,0)" stroke-width="1" opacity="0" d="M 400.5 214 L 407 216 L 407 223.5 L 395 252.5 L 388 264.5 L 387 271.5 L 397 295.5 L 399 303.5 L 401 305.5 L 402 311.5 L 410 327.5 L 407.5 328 L 368.5 328 L 366.5 327 L 361 337.5 L 356 352.5 L 348.5 364 L 346 362.5 L 349 352 Q 345.2 353 344 350.5 L 344 345.5 L 346 341.5 Q 343.5 340 345 334.5 Q 352.3 322.3 355 305.5 L 359 300.5 L 360 294.5 L 365 287.5 L 365 282.5 L 369 271.5 L 382 247.5 L 382 244.5 L 385 238.5 L 390 232.5 Q 393.1 221.1 400.5 214 Z M 389 308 Q 386 312 391 311 L 389 308 Z " /><path fill="rgb(0,0,0)" stroke="rgb(0,0,0)" stroke-width="1" opacity="0" d="M 228.5 218 Q 237.2 216.8 240 221.5 L 242 228.5 Q 239.7 232.2 237.5 227 L 228 224 L 227 219.5 L 228.5 218 Z " /><path fill="rgb(0,0,0)" stroke="rgb(0,0,0)" stroke-width="1" opacity="0" d="M 197 251 L 199 251.5 L 199 263.5 L 200 264.5 L 200 280.5 L 201 281.5 L 201 283.5 L 199 293.5 L 199 295.5 L 197 305.5 L 191 315.5 Q 190 326 184.5 332 L 184 329.5 Q 189.6 324.1 190 313.5 L 197 300.5 L 199 280.5 L 199 276.5 L 197 251 Z " /><path fill="rgb(0,0,0)" stroke="rgb(0,0,0)" stroke-width="1" opacity="0" d="M 255 257 Q 259 255.6 257 262.5 L 254 270.5 L 245.5 281 Q 240.1 287.4 231 289 L 230 286.5 L 243 281 L 245.5 277 L 248 275.5 L 250 272.5 L 254 265.5 L 255 257 Z " /><path fill="rgb(0,0,0)" stroke="rgb(0,0,0)" stroke-width="1" opacity="0" d="M 252 331 L 256.5 331 L 266.5 335 L 270.5 335 L 275.5 332 L 280 335.5 L 281 343.5 Q 279.3 346.8 274.5 347 L 269 345 L 267 339 L 252 333 L 252 331 Z M 273 336 L 273 339 Q 276 338 273 336 Z M 278 342 L 273 344 L 276 345 L 278 344 L 278 342 Z " /><path fill="rgb(95,177,228)" stroke="rgb(95,177,228)" stroke-width="1" opacity="0.9607843137254902" d="M 403.5 90 L 422.5 90 L 430.5 92 Q 444.7 97.8 453 109.5 Q 462.5 121 462 142.5 L 460 152.5 L 456 161.5 L 442.5 177 Q 431.3 185.3 413.5 187 L 404 194.5 L 353 306.5 L 348 322.5 L 320 394.5 L 313.5 404 L 303.5 409 L 293.5 409 L 284.5 406 L 279 400.5 L 259 348.5 L 252 334 L 267 341.5 L 270.5 347 L 276.5 348 L 282 343.5 Q 283.8 333.8 277.5 332 L 272.5 332 Q 271.1 334.6 266.5 334 L 250.5 327 L 247 323.5 L 233 290.5 L 244.5 283 L 253 274.5 L 258.5 261 L 286 322.5 L 297.5 344 L 300 342.5 Q 302.8 331.3 310.5 325 L 326.5 311 L 329.5 311 L 331.5 312 L 338 309 Q 339.6 306.9 339 301.5 L 337 297 L 329.5 295 L 325 298.5 L 324 305.5 L 318.5 311 L 312.5 316 L 312 314.5 L 360 210.5 L 372 187.5 Q 375.6 181.1 376 171.5 L 366 149.5 L 365 132.5 Q 369 110 384.5 99 Q 392.2 92.8 403.5 90 Z M 409 112 L 398 117 Q 390 122 388 133 Q 386 146 392 153 L 402 161 L 412 164 L 421 163 L 428 160 Q 436 154 439 144 Q 441 129 435 123 Q 429 110 409 112 Z " /><path fill="rgb(95,177,228)" stroke="rgb(95,177,228)" stroke-width="1" opacity="0.9607843137254902" d="M 223.5 209 L 235.5 209 Q 242.9 211.1 247 216.5 L 252 224.5 L 254 231.5 L 255 255.5 L 250 271.5 L 241.5 280 L 232.5 285 L 230.5 285 L 227 282.5 L 224.5 278 L 222 281.5 L 220 292.5 L 209 323.5 L 204.5 330 Q 192.2 335.2 183.5 344 L 181.5 344 L 176.5 342 L 171 345.5 L 170 353.5 L 172.5 357 L 176.5 359 L 179.5 358 Q 184.5 358.5 185 354.5 Q 183.8 349.3 186.5 348 L 202 339 L 183 392.5 Q 179.8 401.3 172.5 406 L 164.5 409 L 156.5 409 Q 147 407.4 142 401.5 L 142 398.5 L 156 358.5 L 190 273.5 L 195.5 256 L 197 259.5 L 198 285.5 L 197 286.5 L 196 299.5 L 184 326.5 L 183 333 L 187 330.5 L 201 297.5 L 202 267.5 L 199 252.5 L 199 239.5 L 205 222.5 L 213.5 214 L 223.5 209 Z M 229 217 Q 225 218 226 224 L 243 231 L 243 226 L 242 226 L 242 225 L 241 222 Q 239 215 229 217 Z " /><path fill="rgb(95,177,228)" stroke="rgb(95,177,228)" stroke-width="1" opacity="0.9607843137254902" d="M 71 221 L 116.5 221 L 118 222.5 L 125 244.5 L 155 324.5 L 158 333.5 L 158 340.5 L 150 359.5 L 139 394 Q 136.3 395.1 137 392.5 L 75 235.5 L 71 221 Z " /><path fill="rgb(95,177,228)" stroke="rgb(95,177,228)" stroke-width="1" opacity="0.9607843137254902" d="M 409 222 Q 411.7 220.9 411 223.5 L 489 406 L 443.5 406 L 443 404.5 L 429 369.5 L 425.5 364 L 353.5 364 L 353 361.5 L 367.5 329 L 410.5 329 L 412 327.5 L 391 277.5 L 389 268.5 L 409 222 Z " /></svg>